<?xml version="1.0" encoding="utf-8"?>
<!-- Generator: Adobe Illustrator 25.0.0, SVG Export Plug-In . SVG Version: 6.00 Build 0)  -->
<svg version="1.1" id="Layer_1" xmlns="http://www.w3.org/2000/svg" xmlns:xlink="http://www.w3.org/1999/xlink" x="0px" y="0px"
	 viewBox="0 0 233.3 194.1" style="enable-background:new 0 0 233.3 194.1;" xml:space="preserve" height="194" width="233">
<style type="text/css">
	.st0{fill:url(#SVGID_1_);}
	.st1{fill:url(#SVGID_2_);}
	.st2{fill:url(#SVGID_3_);}
	.st3{fill:#2EFFFF;}
</style>
<g id="satellite">
	<linearGradient id="SVGID_1_" gradientUnits="userSpaceOnUse" x1="49.8363" y1="145.5304" x2="99.3863" y2="95.9804">
		<stop  offset="0" style="stop-color:#005490"/>
		<stop  offset="0.2173" style="stop-color:#217DA6"/>
		<stop  offset="0.4337" style="stop-color:#3C9EB8"/>
		<stop  offset="0.6399" style="stop-color:#4FB6C5"/>
		<stop  offset="0.8316" style="stop-color:#5AC4CC"/>
		<stop  offset="0.9944" style="stop-color:#5EC9CF"/>
	</linearGradient>
	<polygon class="st0" points="95.4,92 111.2,122.7 54.5,150.2 38.3,118.6 	"/>
	<linearGradient id="SVGID_2_" gradientUnits="userSpaceOnUse" x1="132.4113" y1="107.2054" x2="182.6113" y2="57.0054">
		<stop  offset="0" style="stop-color:#005490"/>
		<stop  offset="0.2173" style="stop-color:#217DA6"/>
		<stop  offset="0.4337" style="stop-color:#3C9EB8"/>
		<stop  offset="0.6399" style="stop-color:#4FB6C5"/>
		<stop  offset="0.8316" style="stop-color:#5AC4CC"/>
		<stop  offset="0.9944" style="stop-color:#5EC9CF"/>
	</linearGradient>
	<polygon class="st1" points="121.4,80.8 135.8,110.6 193.1,84 177.4,51.8 	"/>
	<linearGradient id="SVGID_3_" gradientUnits="userSpaceOnUse" x1="102.7342" y1="111.6321" x2="130.0896" y2="95.8386">
		<stop  offset="5.586592e-02" style="stop-color:#2E5E8C"/>
		<stop  offset="8.190574e-02" style="stop-color:#356290"/>
		<stop  offset="0.2919" style="stop-color:#6583AF"/>
		<stop  offset="0.4519" style="stop-color:#8497C3"/>
		<stop  offset="0.5419" style="stop-color:#8F9ECA"/>
		<stop  offset="0.9413" style="stop-color:#365E90"/>
	</linearGradient>
	<polygon class="st2" points="102.8,84.7 101.5,81.2 109.7,77.5 111.2,81.1 114.9,79.7 119.6,89.9 124.6,87.5 128.1,94.6
		123.1,96.8 133,116.2 140,113 142.8,119.7 114.9,132.7 111.2,126 118.1,122.5 108.6,103.1 102.7,106.1 99.3,99.6 104.7,97
		99.3,86.8 	"/>
	<polygon class="st3" points="161.1,60.9 176.3,92 173.7,92.9 159,61.8 	"/>
	<polygon class="st3" points="157.2,100.7 142.8,69.7 139.6,71.3 154.6,101.9 	"/>
	<polygon class="st3" points="183.1,63.5 126.4,91.1 125.5,88.8 182.2,61.8 	"/>
	<polygon class="st3" points="187.5,72.5 130.4,99.3 131.6,101.9 188.8,75.1 	"/>
	<polygon class="st3" points="80,99.2 95.6,130.3 92.7,131.7 77.5,100.4 	"/>
	<polygon class="st3" points="75.9,139.9 60.3,108.4 57.4,109.7 73.8,140.9 	"/>
	<polygon class="st3" points="100.6,103.1 43.9,129.4 42.9,127.5 100,100.9 	"/>
	<polygon class="st3" points="105.4,111.5 48.2,137.8 49.3,140 106.6,113.9 	"/>
</g>
</svg>
