<?xml version="1.0" encoding="utf-8"?>
<!-- Generator: Adobe Illustrator 24.2.0, SVG Export Plug-In . SVG Version: 6.00 Build 0)  -->
<svg version="1.1" id="Layer_1" xmlns="http://www.w3.org/2000/svg" xmlns:xlink="http://www.w3.org/1999/xlink" x="0px" y="0px"
	 viewBox="0 0 233 194" style="enable-background:new 0 0 233 194;" xml:space="preserve" height="194" width="233">
<style type="text/css">
	.st0{fill:url(#SVGID_1_);}
	.st1{fill:url(#SVGID_2_);}
	.st2{fill:#2E4461;}
	.st3{fill:#FFFFFF;}
</style>
<g id="satellite">

		<linearGradient id="SVGID_1_" gradientUnits="userSpaceOnUse" x1="50.0856" y1="50.4474" x2="99.6356" y2="99.9974" gradientTransform="matrix(0.9987 0 0 -0.9987 -0.2353 195.8202)">
		<stop  offset="0" style="stop-color:#005490"/>
		<stop  offset="0.2173" style="stop-color:#217DA6"/>
		<stop  offset="0.4337" style="stop-color:#3C9EB8"/>
		<stop  offset="0.6399" style="stop-color:#4FB6C5"/>
		<stop  offset="0.8316" style="stop-color:#5AC4CC"/>
		<stop  offset="0.9944" style="stop-color:#5EC9CF"/>
	</linearGradient>
	<polygon class="st0" points="95.3,92 111.1,122.6 54.4,150.1 38.3,118.5 	"/>

		<linearGradient id="SVGID_2_" gradientUnits="userSpaceOnUse" x1="132.6606" y1="88.7724" x2="182.8606" y2="138.9724" gradientTransform="matrix(0.9987 0 0 -0.9987 -0.2353 195.8202)">
		<stop  offset="0" style="stop-color:#005490"/>
		<stop  offset="0.2173" style="stop-color:#217DA6"/>
		<stop  offset="0.4337" style="stop-color:#3C9EB8"/>
		<stop  offset="0.6399" style="stop-color:#4FB6C5"/>
		<stop  offset="0.8316" style="stop-color:#5AC4CC"/>
		<stop  offset="0.9944" style="stop-color:#5EC9CF"/>
	</linearGradient>
	<polygon class="st1" points="121.2,80.8 135.6,110.5 192.9,84 177.2,51.8 	"/>
	<polygon class="st2" points="102.7,84.7 101.4,81.2 109.6,77.5 111.1,81.1 114.8,79.7 119.4,89.9 124.4,87.5 127.9,94.6
		122.9,96.8 132.8,116.1 139.8,112.9 142.6,119.6 114.8,132.6 111.1,125.9 117.9,122.4 108.5,103 102.6,106 99.2,99.5 104.6,97
		99.2,86.8 	"/>
	<polygon class="st3" points="160.5,60.4 176.1,92.2 173.4,93.1 158.4,61.3 	"/>
	<polygon class="st3" points="157,100.6 142.6,69.7 139.4,71.3 154.4,101.8 	"/>
	<polygon class="st3" points="182.9,63.5 126.2,91.1 125.3,88.8 182,61.8 	"/>
	<polygon class="st3" points="187.3,72.5 130.2,99.2 131.4,101.8 188.6,75.1 	"/>
	<polygon class="st3" points="79.9,99.1 95.5,130.2 92.6,131.6 77.4,100.3 	"/>
	<polygon class="st3" points="75.8,139.8 60.2,108.3 57.3,109.6 73.7,140.8 	"/>
	<polygon class="st3" points="100.5,103 43.8,129.3 42.8,127.4 99.9,100.8 	"/>
	<polygon class="st3" points="105.3,111.4 48.1,137.7 49.2,139.9 106.5,113.8 	"/>
</g>
</svg>
